<svg xmlns="http://www.w3.org/2000/svg"><defs><symbol id="icon" viewBox="0 0 293 40"><g clip-path="url(#clip0_779_7719)"><path fill="#E1251B" d="M8.842 22.954c0-1.615 2.635-2.933 5.866-2.933 3.23 0 5.866-1.318 5.866-2.933 0-1.615 2.635-2.933 5.866-2.933 3.23 0 5.866-1.318 5.866-2.933 0-1.615 2.636-2.933 5.866-2.933 3.23 0 5.866-1.318 5.866-2.933V0h-.127c-.553 1.36-2.933 2.338-5.781 2.338-3.231 0-5.867 1.318-5.867 2.933 0 1.615-2.635 2.933-5.866 2.933-3.23 0-5.866 1.318-5.866 2.933 0 1.615-2.635 2.933-5.866 2.933H0v8.884h8.842Zm35.154-5.314c-.552 1.361-2.933 2.339-5.78 2.339-3.231 0-5.867 1.317-5.867 2.933 0 1.615-2.635 2.933-5.866 2.933-3.23 0-5.866 1.318-5.866 2.933 0 1.615-2.636 2.933-5.866 2.933-3.23 0-5.866 1.318-5.866 2.933v5.313h.042c.553-1.36 2.933-2.337 5.781-2.337 3.231 0 5.867-1.318 5.867-2.934 0-1.615 2.635-2.933 5.866-2.933 3.23 0 5.866-1.317 5.866-2.933 0-1.615 2.635-2.933 5.866-2.933 3.23 0 5.866-1.317 5.866-2.933v-5.313h-.043Z"/><path fill="#E1251B" d="M44.124 8.842h-.128c-.552 1.36-2.933 2.338-5.78 2.338-3.231 0-5.867 1.317-5.867 2.933 0 1.615-2.635 2.933-5.866 2.933-3.23 0-5.866 1.317-5.866 2.933 0 1.615-2.636 2.933-5.866 2.933-3.23 0-5.866 1.318-5.866 2.933v5.313h.042c.553-1.36 2.933-2.338 5.781-2.338 3.231 0 5.867-1.317 5.867-2.933 0-1.615 2.635-2.933 5.866-2.933 3.23 0 5.866-1.317 5.866-2.933 0-1.615 2.635-2.933 5.866-2.933 3.23 0 5.866-1.318 5.866-2.933V8.842h.085Z"/><path fill="#fff" d="M57.428 28.82v-9.139h-3.06v-2.635h9.478v2.635h-3.06v9.14h-3.358Zm16.409-5.823v-.128c0-2.083-1.063-3.315-2.72-3.315-1.659 0-2.679 1.19-2.679 3.358v.127c0 2.126 1.105 3.358 2.72 3.358 1.659-.042 2.679-1.317 2.679-3.4Zm-8.927 0v-.128c0-3.57 2.678-5.993 6.206-5.993 3.571 0 6.249 2.252 6.249 5.908v.17c0 3.613-2.465 6.079-6.291 6.079-3.783 0-6.164-2.466-6.164-6.036Zm13.942 2.083h3.188c.085.85.467 1.53 1.87 1.53.978 0 1.53-.468 1.53-1.148 0-.722-.425-.935-1.87-1.147-3.316-.425-4.42-1.403-4.42-3.741 0-2.126 1.742-3.656 4.547-3.656 2.849 0 4.421 1.19 4.634 3.656h-3.146c-.127-.85-.595-1.275-1.53-1.275-.893 0-1.36.425-1.36 1.02 0 .637.382.978 1.828 1.148 2.975.34 4.505 1.105 4.505 3.655 0 2.168-1.7 3.911-4.718 3.911-3.273 0-4.973-1.403-5.058-3.953Zm14.112 3.74v-5.016l-3.825-6.758h3.655l1.998 3.995 1.998-3.995h3.231l-3.656 6.758v5.016h-3.4Zm12.413-9.011-1.317 4.505h2.592l-1.275-4.505Zm-5.738 9.011 3.783-11.774h4.378l3.741 11.774h-3.571l-.637-2.168h-3.911l-.638 2.168h-3.145Zm13.603 0V17.046h3.358v9.181h4.464v2.593h-7.822Zm13.092-11.774h-3.4V28.82h3.4V17.046Zm12.03 2.763-1.318 4.505h2.593l-1.275-4.505Zm-5.739 9.011 3.783-11.774h4.379l3.74 11.774h-3.57l-.638-2.168h-3.911l-.637 2.168h-3.146Zm13.602 0V17.046h3.358v9.181h4.463v2.593h-7.821Zm9.054-5.823v-.128c0-3.57 2.636-5.993 6.164-5.993 2.763 0 5.228 1.275 5.483 4.335h-3.358c-.17-1.105-.892-1.657-2.125-1.657-1.658 0-2.678 1.275-2.678 3.4v.128c0 1.913.723 3.4 2.763 3.4 1.658 0 2.253-.85 2.338-1.785h-2.211V22.36h5.526v1.445c0 2.976-1.955 5.229-5.738 5.229-3.996 0-6.164-2.508-6.164-6.036Zm28.312-.553h1.105c1.147 0 1.7-.467 1.7-1.445v-.085c0-.935-.595-1.318-1.658-1.318h-1.105v2.848h-.042Zm-3.359 6.376V17.046h4.591c3.061 0 4.804 1.232 4.804 3.74v.085c0 1.658-.893 2.636-2.126 3.104l2.806 4.888h-3.571l-2.38-4.208h-.808v4.208h-3.316v-.043Zm15.387-11.774h-3.4V28.82h3.4V17.046ZM169.438 28.82V17.046h8.119v2.635h-4.761v1.998h3.783v2.423h-3.783v2.125h5.016v2.593h-8.374Zm29.031 0V17.046h8.119v2.635h-4.761v1.998h3.783v2.423h-3.783v2.125h5.016v2.593h-8.374Zm15.304 0V17.046h6.887v1.19h-5.484v4.166h4.251v1.147h-4.251v5.271h-1.403Zm13.858-5.143c-.128-1.785-1.063-2.466-2.466-2.466-1.403 0-2.338.936-2.55 2.466h5.016Zm-6.504.935v-.127c0-2.593 1.658-4.421 4.038-4.421 1.998 0 3.868 1.19 3.868 4.293v.425h-6.461c.085 1.956 1.02 3.06 2.763 3.06 1.318 0 2.126-.51 2.296-1.487h1.36c-.298 1.743-1.743 2.635-3.656 2.635-2.465 0-4.208-1.742-4.208-4.378Zm9.648 4.208v-8.586h1.361v1.53c.552-.978 1.275-1.658 2.848-1.7v1.275c-1.743.085-2.848.638-2.848 2.763v4.718h-1.361Zm14.197-5.143c-.127-1.785-1.062-2.466-2.465-2.466-1.403 0-2.338.936-2.55 2.466h5.015Zm-6.503.935v-.127c0-2.593 1.658-4.421 4.038-4.421 1.998 0 3.868 1.19 3.868 4.293v.425h-6.503c.085 1.956 1.02 3.06 2.763 3.06 1.317 0 2.125-.51 2.295-1.487h1.36c-.297 1.743-1.743 2.635-3.655 2.635-2.466 0-4.166-1.742-4.166-4.378Zm9.734 2.04v-5.27h-1.232v-1.148h1.232v-1.956h1.361v1.956h1.998v1.147h-1.998v5.186c0 .85.382 1.233 1.062 1.233.425 0 .766-.085 1.063-.17v1.148c-.297.085-.595.17-1.148.17-1.572 0-2.338-.935-2.338-2.296Zm11.861-8.416-2.041 6.078h4.081l-2.04-6.078Zm-4.931 10.584 4.038-11.774h1.87l3.996 11.774h-1.403l-1.147-3.4h-4.889l-1.147 3.4h-1.318Zm10.627-4.208v-.127c0-2.636 1.87-4.421 4.166-4.421 1.785 0 3.485.807 3.74 3.018h-1.36c-.213-1.36-1.19-1.87-2.38-1.87-1.573 0-2.763 1.232-2.763 3.273v.127c0 2.126 1.147 3.23 2.805 3.23 1.233 0 2.338-.722 2.466-2.125h1.275c-.17 1.87-1.658 3.23-3.741 3.23-2.38.043-4.208-1.657-4.208-4.335Zm9.564-4.378h1.36v8.586h-1.36v-8.586Zm-.213-2.72c0-.51.425-.893.893-.893.51 0 .893.425.893.892 0 .51-.425.893-.893.893a.872.872 0 0 1-.893-.893Zm9.735 6.163c-.128-1.785-1.063-2.466-2.466-2.466-1.403 0-2.338.936-2.55 2.466h5.016Zm-6.504.935v-.127c0-2.593 1.658-4.421 4.038-4.421 1.998 0 3.868 1.19 3.868 4.293v.425h-6.461c.085 1.956 1.02 3.06 2.763 3.06 1.318 0 2.125-.51 2.296-1.487h1.36c-.298 1.743-1.743 2.635-3.656 2.635-2.465 0-4.208-1.742-4.208-4.378Zm9.607 4.208v-8.586h1.36v1.53c.553-.978 1.276-1.658 2.848-1.7v1.275c-1.742.085-2.848.638-2.848 2.763v4.718h-1.36Z"/><path fill="#E1251B" d="M292.158 33.709h-78.385v.977h78.385v-.977Z"/></g><clipPath id="clip0_779_7719"><path fill="#fff" d="M0 0h292.157v46H0z"/></clipPath></symbol></defs></svg>